<?xml version="1.0" encoding="UTF-8"?>
<svg id="Capa_1" xmlns="http://www.w3.org/2000/svg" version="1.1" viewBox="0 0 800 800">
  <!-- Generator: Adobe Illustrator 30.3.0, SVG Export Plug-In . SVG Version: 2.1.3 Build 182)  -->
  <defs>
    <style>
      .st0 {
        fill: #fff;
        fill-rule: evenodd;
      }
    </style>
  </defs>
  <g id="Icons">
    <g id="Color-">
      <path id="Github" class="st0" d="M399.97,8.33C179.1,8.33,0,188.12,0,409.94,0,587.34,114.6,737.86,273.58,790.97c20,3.69,27.3-8.71,27.3-19.35,0-9.54-.35-34.79-.55-68.29-111.27,24.27-134.75-53.84-134.75-53.84-18.18-46.38-44.4-58.73-44.4-58.73-36.33-24.92,2.75-24.42,2.75-24.42,40.13,2.84,61.25,41.39,61.25,41.39,35.7,61.37,93.63,43.65,116.43,33.36,3.62-25.95,13.98-43.65,25.4-53.69-88.82-10.14-182.2-44.58-182.2-198.46,0-43.85,15.58-79.69,41.18-107.78-4.12-10.17-17.85-50.98,3.9-106.27,0,0,33.6-10.79,110,41.16,31.93-8.91,66.13-13.35,100.15-13.53,33.97.18,68.2,4.62,100.15,13.53,76.35-51.96,109.88-41.16,109.88-41.16,21.82,55.29,8.1,96.1,3.97,106.27,25.65,28.09,41.13,63.93,41.13,107.78,0,154.26-93.53,188.22-182.63,198.16,14.35,12.4,27.15,36.9,27.15,74.37,0,53.69-.5,96.98-.5,110.16,0,10.74,7.2,23.24,27.5,19.3,158.82-53.21,273.32-203.63,273.32-380.98,0-221.83-179.1-401.61-400.03-401.61"/>
    </g>
  </g>
</svg>